<mxfile host="app.diagrams.net" agent="Mozilla/5.0 (Windows NT 10.0; Win64; x64) AppleWebKit/537.36 (KHTML, like Gecko) Chrome/126.0.0.0 Safari/537.36" version="24.7.6">
  <diagram name="Page-1" id="tfclPJxnU1pLEloB8Ohw">
    <mxGraphModel dx="1985" dy="1135" grid="1" gridSize="10" guides="1" tooltips="1" connect="1" arrows="1" fold="1" page="1" pageScale="1" pageWidth="850" pageHeight="1100" math="0" shadow="0">
      <root>
        <mxCell id="0" />
        <mxCell id="1" parent="0" />
        <mxCell id="TOUegs6FuvzjUtlbZ1zc-1" value="VPC" style="points=[[0,0],[0.25,0],[0.5,0],[0.75,0],[1,0],[1,0.25],[1,0.5],[1,0.75],[1,1],[0.75,1],[0.5,1],[0.25,1],[0,1],[0,0.75],[0,0.5],[0,0.25]];outlineConnect=0;gradientColor=none;html=1;whiteSpace=wrap;fontSize=12;fontStyle=0;container=1;pointerEvents=0;collapsible=0;recursiveResize=0;shape=mxgraph.aws4.group;grIcon=mxgraph.aws4.group_vpc2;strokeColor=#8C4FFF;fillColor=none;verticalAlign=top;align=left;spacingLeft=30;fontColor=#AAB7B8;dashed=0;" parent="1" vertex="1">
          <mxGeometry x="190" y="300" width="2950" height="1766.5" as="geometry" />
        </mxCell>
        <mxCell id="TOUegs6FuvzjUtlbZ1zc-3" value="" style="shape=mxgraph.mockup.containers.marginRect;rectMarginTop=10;strokeColor=#666666;strokeWidth=1;dashed=0;rounded=1;arcSize=5;recursiveResize=0;html=1;whiteSpace=wrap;" parent="TOUegs6FuvzjUtlbZ1zc-1" vertex="1">
          <mxGeometry x="120" y="140" width="730" height="927" as="geometry" />
        </mxCell>
        <mxCell id="TOUegs6FuvzjUtlbZ1zc-4" value="ML Account" style="shape=rect;strokeColor=none;fillColor=#008cff;strokeWidth=1;dashed=0;rounded=1;arcSize=20;fontColor=#ffffff;fontSize=17;spacing=2;spacingTop=-2;align=left;autosize=1;spacingLeft=4;resizeWidth=0;resizeHeight=0;perimeter=none;html=1;whiteSpace=wrap;" parent="TOUegs6FuvzjUtlbZ1zc-3" vertex="1">
          <mxGeometry x="6" width="110" height="30" as="geometry" />
        </mxCell>
        <mxCell id="TOUegs6FuvzjUtlbZ1zc-5" value="" style="sketch=0;points=[[0,0,0],[0.25,0,0],[0.5,0,0],[0.75,0,0],[1,0,0],[0,1,0],[0.25,1,0],[0.5,1,0],[0.75,1,0],[1,1,0],[0,0.25,0],[0,0.5,0],[0,0.75,0],[1,0.25,0],[1,0.5,0],[1,0.75,0]];outlineConnect=0;fontColor=#232F3E;fillColor=#01A88D;strokeColor=#ffffff;dashed=0;verticalLabelPosition=bottom;verticalAlign=top;align=center;html=1;fontSize=12;fontStyle=0;aspect=fixed;shape=mxgraph.aws4.resourceIcon;resIcon=mxgraph.aws4.sagemaker;" parent="TOUegs6FuvzjUtlbZ1zc-3" vertex="1">
          <mxGeometry x="68.07" y="357" width="38.75" height="38.75" as="geometry" />
        </mxCell>
        <mxCell id="TOUegs6FuvzjUtlbZ1zc-6" value="" style="edgeStyle=orthogonalEdgeStyle;rounded=0;orthogonalLoop=1;jettySize=auto;html=1;entryX=0;entryY=0.5;entryDx=0;entryDy=0;entryPerimeter=0;" parent="TOUegs6FuvzjUtlbZ1zc-3" target="TOUegs6FuvzjUtlbZ1zc-10" edge="1">
          <mxGeometry relative="1" as="geometry">
            <mxPoint x="226.81999999999994" y="378.42857142857144" as="sourcePoint" />
            <mxPoint x="305" y="383.375" as="targetPoint" />
          </mxGeometry>
        </mxCell>
        <mxCell id="TOUegs6FuvzjUtlbZ1zc-7" value="" style="sketch=0;points=[[0,0,0],[0.25,0,0],[0.5,0,0],[0.75,0,0],[1,0,0],[0,1,0],[0.25,1,0],[0.5,1,0],[0.75,1,0],[1,1,0],[0,0.25,0],[0,0.5,0],[0,0.75,0],[1,0.25,0],[1,0.5,0],[1,0.75,0]];outlineConnect=0;fontColor=#232F3E;fillColor=#01A88D;strokeColor=#ffffff;dashed=0;verticalLabelPosition=bottom;verticalAlign=top;align=center;html=1;fontSize=12;fontStyle=0;aspect=fixed;shape=mxgraph.aws4.resourceIcon;resIcon=mxgraph.aws4.sagemaker;" parent="TOUegs6FuvzjUtlbZ1zc-3" vertex="1">
          <mxGeometry x="188.07" y="357" width="38.75" height="38.75" as="geometry" />
        </mxCell>
        <mxCell id="TOUegs6FuvzjUtlbZ1zc-8" value="" style="edgeStyle=orthogonalEdgeStyle;rounded=0;orthogonalLoop=1;jettySize=auto;html=1;" parent="TOUegs6FuvzjUtlbZ1zc-3" source="TOUegs6FuvzjUtlbZ1zc-10" target="TOUegs6FuvzjUtlbZ1zc-11" edge="1">
          <mxGeometry relative="1" as="geometry" />
        </mxCell>
        <mxCell id="TOUegs6FuvzjUtlbZ1zc-9" value="YES" style="edgeLabel;html=1;align=center;verticalAlign=middle;resizable=0;points=[];" parent="TOUegs6FuvzjUtlbZ1zc-8" vertex="1" connectable="0">
          <mxGeometry x="-0.2431" y="5" relative="1" as="geometry">
            <mxPoint as="offset" />
          </mxGeometry>
        </mxCell>
        <mxCell id="TOUegs6FuvzjUtlbZ1zc-10" value="" style="sketch=0;points=[[0,0,0],[0.25,0,0],[0.5,0,0],[0.75,0,0],[1,0,0],[0,1,0],[0.25,1,0],[0.5,1,0],[0.75,1,0],[1,1,0],[0,0.25,0],[0,0.5,0],[0,0.75,0],[1,0.25,0],[1,0.5,0],[1,0.75,0]];outlineConnect=0;fontColor=#232F3E;fillColor=#01A88D;strokeColor=#ffffff;dashed=0;verticalLabelPosition=bottom;verticalAlign=top;align=center;html=1;fontSize=12;fontStyle=0;aspect=fixed;shape=mxgraph.aws4.resourceIcon;resIcon=mxgraph.aws4.sagemaker;" parent="TOUegs6FuvzjUtlbZ1zc-3" vertex="1">
          <mxGeometry x="321" y="359" width="38.75" height="38.75" as="geometry" />
        </mxCell>
        <mxCell id="TOUegs6FuvzjUtlbZ1zc-12" style="edgeStyle=orthogonalEdgeStyle;rounded=0;orthogonalLoop=1;jettySize=auto;html=1;exitX=1;exitY=0.5;exitDx=0;exitDy=0;exitPerimeter=0;entryX=0;entryY=0.5;entryDx=0;entryDy=0;entryPerimeter=0;" parent="TOUegs6FuvzjUtlbZ1zc-3" edge="1">
          <mxGeometry relative="1" as="geometry">
            <mxPoint x="106.81999999999994" y="377.375" as="sourcePoint" />
            <mxPoint x="188.06999999999994" y="377.375" as="targetPoint" />
          </mxGeometry>
        </mxCell>
        <mxCell id="TOUegs6FuvzjUtlbZ1zc-13" value="Pre-&amp;nbsp;&lt;div&gt;processing&lt;/div&gt;" style="text;html=1;align=center;verticalAlign=middle;resizable=0;points=[];autosize=1;strokeColor=none;fillColor=none;" parent="TOUegs6FuvzjUtlbZ1zc-3" vertex="1">
          <mxGeometry x="47.44" y="395.75" width="80" height="40" as="geometry" />
        </mxCell>
        <mxCell id="TOUegs6FuvzjUtlbZ1zc-14" value="Fine&amp;nbsp;&lt;div&gt;Tune&lt;/div&gt;" style="text;html=1;align=center;verticalAlign=middle;resizable=0;points=[];autosize=1;strokeColor=none;fillColor=none;" parent="TOUegs6FuvzjUtlbZ1zc-3" vertex="1">
          <mxGeometry x="182.44" y="395.75" width="50" height="40" as="geometry" />
        </mxCell>
        <mxCell id="TOUegs6FuvzjUtlbZ1zc-15" value="Register&lt;div&gt;Model&lt;/div&gt;" style="text;html=1;align=center;verticalAlign=middle;resizable=0;points=[];autosize=1;strokeColor=none;fillColor=none;" parent="TOUegs6FuvzjUtlbZ1zc-3" vertex="1">
          <mxGeometry x="414.37999999999994" y="399.75" width="70" height="40" as="geometry" />
        </mxCell>
        <mxCell id="TOUegs6FuvzjUtlbZ1zc-17" value="&lt;div&gt;&lt;br&gt;&lt;/div&gt;&lt;div&gt;&lt;br&gt;&lt;/div&gt;&lt;div&gt;&lt;br&gt;&lt;/div&gt;&lt;div&gt;&lt;br&gt;&lt;/div&gt;&lt;div&gt;&lt;br&gt;&lt;/div&gt;&lt;div&gt;&lt;br&gt;&lt;/div&gt;&lt;div&gt;&lt;br&gt;&lt;/div&gt;&lt;div&gt;&lt;br&gt;&lt;/div&gt;&lt;div&gt;&lt;br&gt;&lt;/div&gt;&lt;div&gt;&lt;br&gt;&lt;/div&gt;&lt;div&gt;&lt;br&gt;&lt;/div&gt;&lt;div&gt;&lt;br&gt;&lt;/div&gt;&lt;div&gt;&lt;br&gt;&lt;/div&gt;&lt;div&gt;&lt;br&gt;&lt;/div&gt;&lt;div&gt;&lt;br&gt;&lt;/div&gt;&lt;div&gt;&lt;br&gt;&lt;/div&gt;&lt;div&gt;&lt;br&gt;&lt;/div&gt;" style="outlineConnect=0;gradientColor=none;html=1;whiteSpace=wrap;fontSize=12;fontStyle=0;strokeColor=#858B94;fillColor=none;verticalAlign=top;align=center;fontColor=#858B94;dashed=1;spacingTop=3;strokeWidth=2;" parent="TOUegs6FuvzjUtlbZ1zc-3" vertex="1">
          <mxGeometry x="164.10999999999999" y="333" width="86.68" height="119.69" as="geometry" />
        </mxCell>
        <mxCell id="TOUegs6FuvzjUtlbZ1zc-18" value="&lt;div&gt;&lt;br&gt;&lt;/div&gt;&lt;div&gt;&lt;br&gt;&lt;/div&gt;&lt;div&gt;&lt;br&gt;&lt;/div&gt;&lt;div&gt;&lt;br&gt;&lt;/div&gt;&lt;div&gt;&lt;br&gt;&lt;/div&gt;&lt;div&gt;&lt;br&gt;&lt;/div&gt;&lt;div&gt;&lt;br&gt;&lt;/div&gt;&lt;div&gt;&lt;br&gt;&lt;/div&gt;&lt;div&gt;&lt;br&gt;&lt;/div&gt;&lt;div&gt;&lt;br&gt;&lt;/div&gt;&lt;div&gt;&lt;br&gt;&lt;/div&gt;&lt;div&gt;&lt;br&gt;&lt;/div&gt;&lt;div&gt;&lt;br&gt;&lt;/div&gt;&lt;div&gt;&lt;br&gt;&lt;/div&gt;&lt;div&gt;&lt;br&gt;&lt;/div&gt;&lt;div&gt;&lt;br&gt;&lt;/div&gt;&lt;div&gt;&lt;br&gt;&lt;/div&gt;" style="outlineConnect=0;gradientColor=none;html=1;whiteSpace=wrap;fontSize=12;fontStyle=0;strokeColor=#858B94;fillColor=none;verticalAlign=top;align=center;fontColor=#858B94;dashed=1;spacingTop=3;strokeWidth=2;" parent="TOUegs6FuvzjUtlbZ1zc-3" vertex="1">
          <mxGeometry x="47.44999999999999" y="333.31" width="80" height="119.38" as="geometry" />
        </mxCell>
        <mxCell id="TOUegs6FuvzjUtlbZ1zc-19" value="Build" style="text;html=1;align=center;verticalAlign=middle;resizable=0;points=[];autosize=1;strokeColor=none;fillColor=none;" parent="TOUegs6FuvzjUtlbZ1zc-3" vertex="1">
          <mxGeometry x="62.44" y="301" width="50" height="30" as="geometry" />
        </mxCell>
        <mxCell id="TOUegs6FuvzjUtlbZ1zc-20" value="Prompt&lt;div&gt;&amp;nbsp;library&lt;/div&gt;" style="html=1;align=center;verticalAlign=top;resizable=0;autosize=1;strokeColor=none;fillColor=none;shape=image;labelBackgroundColor=default;verticalLabelPosition=bottom;aspect=fixed;points=[];image=img/lib/azure2/databases/Azure_Database_PostgreSQL_Server.svg;" parent="TOUegs6FuvzjUtlbZ1zc-3" vertex="1">
          <mxGeometry x="64" y="66" width="60" height="40" as="geometry" />
        </mxCell>
        <mxCell id="TOUegs6FuvzjUtlbZ1zc-22" value="&lt;div&gt;&lt;br&gt;&lt;/div&gt;&lt;div&gt;&lt;br&gt;&lt;/div&gt;&lt;div&gt;&lt;br&gt;&lt;/div&gt;&lt;div&gt;&lt;br&gt;&lt;/div&gt;&lt;div&gt;&lt;br&gt;&lt;/div&gt;&lt;div&gt;&lt;br&gt;&lt;/div&gt;&lt;div&gt;&lt;br&gt;&lt;/div&gt;&lt;div&gt;&lt;br&gt;&lt;/div&gt;&lt;div&gt;&lt;br&gt;&lt;/div&gt;&lt;div&gt;&lt;br&gt;&lt;/div&gt;&lt;div&gt;&lt;br&gt;&lt;/div&gt;&lt;div&gt;&lt;br&gt;&lt;/div&gt;&lt;div&gt;&lt;br&gt;&lt;/div&gt;&lt;div&gt;&lt;br&gt;&lt;/div&gt;&lt;div&gt;&lt;br&gt;&lt;/div&gt;&lt;div&gt;&lt;br&gt;&lt;/div&gt;&lt;div&gt;&lt;br&gt;&lt;/div&gt;" style="outlineConnect=0;gradientColor=none;html=1;whiteSpace=wrap;fontSize=12;fontStyle=0;strokeColor=#858B94;fillColor=none;verticalAlign=top;align=center;fontColor=#858B94;dashed=1;spacingTop=3;strokeWidth=2;" parent="TOUegs6FuvzjUtlbZ1zc-3" vertex="1">
          <mxGeometry x="527.5" y="336.75" width="95" height="80" as="geometry" />
        </mxCell>
        <mxCell id="TOUegs6FuvzjUtlbZ1zc-23" style="edgeStyle=orthogonalEdgeStyle;rounded=0;orthogonalLoop=1;jettySize=auto;html=1;" parent="TOUegs6FuvzjUtlbZ1zc-3" target="TOUegs6FuvzjUtlbZ1zc-36" edge="1">
          <mxGeometry relative="1" as="geometry">
            <mxPoint x="580" y="480" as="sourcePoint" />
            <Array as="points">
              <mxPoint x="580" y="528" />
            </Array>
          </mxGeometry>
        </mxCell>
        <mxCell id="TOUegs6FuvzjUtlbZ1zc-24" value="" style="sketch=0;outlineConnect=0;fontColor=#232F3E;gradientColor=none;fillColor=#ED7100;strokeColor=none;dashed=0;verticalLabelPosition=bottom;verticalAlign=top;align=center;html=1;fontSize=12;fontStyle=0;aspect=fixed;pointerEvents=1;shape=mxgraph.aws4.registry;" parent="TOUegs6FuvzjUtlbZ1zc-3" vertex="1">
          <mxGeometry x="555" y="358.75" width="40" height="40" as="geometry" />
        </mxCell>
        <mxCell id="TOUegs6FuvzjUtlbZ1zc-25" value="Model&lt;div&gt;&amp;nbsp;Package&lt;/div&gt;&lt;div&gt;Group&lt;/div&gt;" style="text;html=1;align=center;verticalAlign=middle;resizable=0;points=[];autosize=1;strokeColor=none;fillColor=none;" parent="TOUegs6FuvzjUtlbZ1zc-3" vertex="1">
          <mxGeometry x="544" y="416.75" width="70" height="60" as="geometry" />
        </mxCell>
        <mxCell id="TOUegs6FuvzjUtlbZ1zc-26" value="&lt;div&gt;&lt;br&gt;&lt;/div&gt;&lt;div&gt;&lt;br&gt;&lt;/div&gt;&lt;div&gt;&lt;br&gt;&lt;/div&gt;&lt;div&gt;&lt;br&gt;&lt;/div&gt;&lt;div&gt;&lt;br&gt;&lt;/div&gt;&lt;div&gt;&lt;br&gt;&lt;/div&gt;&lt;div&gt;&lt;br&gt;&lt;/div&gt;&lt;div&gt;&lt;br&gt;&lt;/div&gt;&lt;div&gt;&lt;br&gt;&lt;/div&gt;&lt;div&gt;&lt;br&gt;&lt;/div&gt;&lt;div&gt;&lt;br&gt;&lt;/div&gt;&lt;div&gt;&lt;br&gt;&lt;/div&gt;&lt;div&gt;&lt;br&gt;&lt;/div&gt;&lt;div&gt;&lt;br&gt;&lt;/div&gt;&lt;div&gt;&lt;br&gt;&lt;/div&gt;&lt;div&gt;&lt;br&gt;&lt;/div&gt;&lt;div&gt;&lt;br&gt;&lt;/div&gt;" style="outlineConnect=0;gradientColor=none;html=1;whiteSpace=wrap;fontSize=12;fontStyle=0;strokeColor=#858B94;fillColor=none;verticalAlign=top;align=center;fontColor=#858B94;dashed=1;spacingTop=3;strokeWidth=2;" parent="TOUegs6FuvzjUtlbZ1zc-3" vertex="1">
          <mxGeometry x="340" y="53.13" width="190" height="116.87" as="geometry" />
        </mxCell>
        <mxCell id="TOUegs6FuvzjUtlbZ1zc-27" style="edgeStyle=orthogonalEdgeStyle;rounded=0;orthogonalLoop=1;jettySize=auto;html=1;entryX=0.933;entryY=0.811;entryDx=0;entryDy=0;entryPerimeter=0;" parent="TOUegs6FuvzjUtlbZ1zc-3" target="TOUegs6FuvzjUtlbZ1zc-20" edge="1">
          <mxGeometry relative="1" as="geometry">
            <Array as="points" />
            <mxPoint x="359.7500000000002" y="97.27285714285722" as="sourcePoint" />
            <mxPoint x="110" y="53.13" as="targetPoint" />
          </mxGeometry>
        </mxCell>
        <mxCell id="TOUegs6FuvzjUtlbZ1zc-28" value="" style="sketch=0;points=[[0,0,0],[0.25,0,0],[0.5,0,0],[0.75,0,0],[1,0,0],[0,1,0],[0.25,1,0],[0.5,1,0],[0.75,1,0],[1,1,0],[0,0.25,0],[0,0.5,0],[0,0.75,0],[1,0.25,0],[1,0.5,0],[1,0.75,0]];outlineConnect=0;fontColor=#232F3E;fillColor=#C925D1;strokeColor=#ffffff;dashed=0;verticalLabelPosition=bottom;verticalAlign=top;align=center;html=1;fontSize=12;fontStyle=0;aspect=fixed;shape=mxgraph.aws4.resourceIcon;resIcon=mxgraph.aws4.codebuild;" parent="TOUegs6FuvzjUtlbZ1zc-3" vertex="1">
          <mxGeometry x="362.82" y="78.13" width="40" height="40" as="geometry" />
        </mxCell>
        <mxCell id="TOUegs6FuvzjUtlbZ1zc-92" value="" style="edgeStyle=orthogonalEdgeStyle;rounded=0;orthogonalLoop=1;jettySize=auto;html=1;entryX=1;entryY=0.5;entryDx=0;entryDy=0;entryPerimeter=0;" parent="TOUegs6FuvzjUtlbZ1zc-3" target="TOUegs6FuvzjUtlbZ1zc-28" edge="1">
          <mxGeometry relative="1" as="geometry">
            <mxPoint x="460" y="97.14285714285722" as="sourcePoint" />
            <mxPoint x="410" y="99" as="targetPoint" />
          </mxGeometry>
        </mxCell>
        <mxCell id="TOUegs6FuvzjUtlbZ1zc-30" value="" style="sketch=0;points=[[0,0,0],[0.25,0,0],[0.5,0,0],[0.75,0,0],[1,0,0],[0,1,0],[0.25,1,0],[0.5,1,0],[0.75,1,0],[1,1,0],[0,0.25,0],[0,0.5,0],[0,0.75,0],[1,0.25,0],[1,0.5,0],[1,0.75,0]];outlineConnect=0;fontColor=#232F3E;fillColor=#C925D1;strokeColor=#ffffff;dashed=0;verticalLabelPosition=bottom;verticalAlign=top;align=center;html=1;fontSize=12;fontStyle=0;aspect=fixed;shape=mxgraph.aws4.resourceIcon;resIcon=mxgraph.aws4.codecommit;" parent="TOUegs6FuvzjUtlbZ1zc-3" vertex="1">
          <mxGeometry x="460" y="78.13" width="40" height="40" as="geometry" />
        </mxCell>
        <mxCell id="TOUegs6FuvzjUtlbZ1zc-32" value="Code&lt;div&gt;Commit&lt;/div&gt;" style="text;html=1;align=center;verticalAlign=middle;resizable=0;points=[];autosize=1;strokeColor=none;fillColor=none;" parent="TOUegs6FuvzjUtlbZ1zc-3" vertex="1">
          <mxGeometry x="450" y="118.13" width="60" height="40" as="geometry" />
        </mxCell>
        <mxCell id="TOUegs6FuvzjUtlbZ1zc-34" value="Continuous Training" style="text;html=1;align=center;verticalAlign=middle;resizable=0;points=[];autosize=1;strokeColor=none;fillColor=none;" parent="TOUegs6FuvzjUtlbZ1zc-3" vertex="1">
          <mxGeometry x="340" y="23.129999999999995" width="130" height="30" as="geometry" />
        </mxCell>
        <mxCell id="TOUegs6FuvzjUtlbZ1zc-35" style="edgeStyle=orthogonalEdgeStyle;rounded=0;orthogonalLoop=1;jettySize=auto;html=1;" parent="TOUegs6FuvzjUtlbZ1zc-3" edge="1">
          <mxGeometry relative="1" as="geometry">
            <mxPoint x="485.3800000000001" y="528.28" as="sourcePoint" />
            <mxPoint x="580" y="476.75" as="targetPoint" />
            <Array as="points">
              <mxPoint x="580" y="528" />
            </Array>
          </mxGeometry>
        </mxCell>
        <mxCell id="TOUegs6FuvzjUtlbZ1zc-36" value="Amazon S3" style="sketch=0;outlineConnect=0;fontColor=#232F3E;gradientColor=none;strokeColor=#ffffff;fillColor=#232F3E;dashed=0;verticalLabelPosition=middle;verticalAlign=bottom;align=center;html=1;whiteSpace=wrap;fontSize=10;fontStyle=1;spacing=3;shape=mxgraph.aws4.productIcon;prIcon=mxgraph.aws4.s3;" parent="TOUegs6FuvzjUtlbZ1zc-3" vertex="1">
          <mxGeometry x="414.38" y="480" width="70" height="96.5" as="geometry" />
        </mxCell>
        <mxCell id="TOUegs6FuvzjUtlbZ1zc-37" value="Model&lt;div&gt;&amp;nbsp;Artifact&lt;/div&gt;" style="text;html=1;align=center;verticalAlign=middle;resizable=0;points=[];autosize=1;strokeColor=none;fillColor=none;" parent="TOUegs6FuvzjUtlbZ1zc-3" vertex="1">
          <mxGeometry x="419.38" y="576.5" width="60" height="40" as="geometry" />
        </mxCell>
        <mxCell id="TOUegs6FuvzjUtlbZ1zc-38" value="Model&lt;div&gt;Evaluation&lt;/div&gt;" style="text;html=1;align=center;verticalAlign=middle;resizable=0;points=[];autosize=1;strokeColor=none;fillColor=none;" parent="TOUegs6FuvzjUtlbZ1zc-3" vertex="1">
          <mxGeometry x="300" y="399.75" width="80" height="40" as="geometry" />
        </mxCell>
        <mxCell id="TOUegs6FuvzjUtlbZ1zc-39" value="Train" style="text;html=1;align=center;verticalAlign=middle;resizable=0;points=[];autosize=1;strokeColor=none;fillColor=none;" parent="TOUegs6FuvzjUtlbZ1zc-3" vertex="1">
          <mxGeometry x="182.45" y="299.13" width="50" height="30" as="geometry" />
        </mxCell>
        <mxCell id="CT22DMvGcDa_Don4qREr-149" style="edgeStyle=orthogonalEdgeStyle;rounded=0;orthogonalLoop=1;jettySize=auto;html=1;entryX=0;entryY=0.5;entryDx=0;entryDy=0;" edge="1" parent="TOUegs6FuvzjUtlbZ1zc-3" source="TOUegs6FuvzjUtlbZ1zc-11" target="TOUegs6FuvzjUtlbZ1zc-22">
          <mxGeometry relative="1" as="geometry" />
        </mxCell>
        <mxCell id="TOUegs6FuvzjUtlbZ1zc-11" value="" style="sketch=0;points=[[0,0,0],[0.25,0,0],[0.5,0,0],[0.75,0,0],[1,0,0],[0,1,0],[0.25,1,0],[0.5,1,0],[0.75,1,0],[1,1,0],[0,0.25,0],[0,0.5,0],[0,0.75,0],[1,0.25,0],[1,0.5,0],[1,0.75,0]];outlineConnect=0;fontColor=#232F3E;fillColor=#01A88D;strokeColor=#ffffff;dashed=0;verticalLabelPosition=bottom;verticalAlign=top;align=center;html=1;fontSize=12;fontStyle=0;aspect=fixed;shape=mxgraph.aws4.resourceIcon;resIcon=mxgraph.aws4.sagemaker;" parent="TOUegs6FuvzjUtlbZ1zc-3" vertex="1">
          <mxGeometry x="430.38" y="358" width="38" height="38" as="geometry" />
        </mxCell>
        <mxCell id="TOUegs6FuvzjUtlbZ1zc-33" value="Code&amp;nbsp;&lt;div&gt;Pipeline&lt;/div&gt;" style="text;html=1;align=center;verticalAlign=middle;resizable=0;points=[];autosize=1;strokeColor=none;fillColor=none;" parent="TOUegs6FuvzjUtlbZ1zc-3" vertex="1">
          <mxGeometry x="359.75" y="124.13" width="70" height="40" as="geometry" />
        </mxCell>
        <mxCell id="TOUegs6FuvzjUtlbZ1zc-93" style="edgeStyle=orthogonalEdgeStyle;rounded=0;orthogonalLoop=1;jettySize=auto;html=1;entryX=0.651;entryY=-0.1;entryDx=0;entryDy=0;entryPerimeter=0;" parent="TOUegs6FuvzjUtlbZ1zc-3" target="TOUegs6FuvzjUtlbZ1zc-19" edge="1">
          <mxGeometry relative="1" as="geometry">
            <mxPoint x="95" y="148" as="sourcePoint" />
          </mxGeometry>
        </mxCell>
        <mxCell id="TOUegs6FuvzjUtlbZ1zc-95" style="edgeStyle=orthogonalEdgeStyle;rounded=0;orthogonalLoop=1;jettySize=auto;html=1;entryX=0.872;entryY=1.098;entryDx=0;entryDy=0;entryPerimeter=0;" parent="TOUegs6FuvzjUtlbZ1zc-3" source="TOUegs6FuvzjUtlbZ1zc-10" target="TOUegs6FuvzjUtlbZ1zc-33" edge="1">
          <mxGeometry relative="1" as="geometry" />
        </mxCell>
        <mxCell id="TOUegs6FuvzjUtlbZ1zc-96" value="NO" style="edgeLabel;html=1;align=center;verticalAlign=middle;resizable=0;points=[];" parent="TOUegs6FuvzjUtlbZ1zc-95" vertex="1" connectable="0">
          <mxGeometry x="0.5087" relative="1" as="geometry">
            <mxPoint as="offset" />
          </mxGeometry>
        </mxCell>
        <mxCell id="CT22DMvGcDa_Don4qREr-111" style="edgeStyle=orthogonalEdgeStyle;rounded=0;orthogonalLoop=1;jettySize=auto;html=1;" edge="1" parent="TOUegs6FuvzjUtlbZ1zc-3" source="TOUegs6FuvzjUtlbZ1zc-148" target="CT22DMvGcDa_Don4qREr-110">
          <mxGeometry relative="1" as="geometry" />
        </mxCell>
        <mxCell id="TOUegs6FuvzjUtlbZ1zc-148" value="Amazon S3" style="sketch=0;outlineConnect=0;fontColor=#232F3E;gradientColor=none;strokeColor=#ffffff;fillColor=#232F3E;dashed=0;verticalLabelPosition=middle;verticalAlign=bottom;align=center;html=1;whiteSpace=wrap;fontSize=10;fontStyle=1;spacing=3;shape=mxgraph.aws4.productIcon;prIcon=mxgraph.aws4.s3;" parent="TOUegs6FuvzjUtlbZ1zc-3" vertex="1">
          <mxGeometry x="545" y="770" width="69" height="92" as="geometry" />
        </mxCell>
        <mxCell id="CT22DMvGcDa_Don4qREr-15" style="edgeStyle=orthogonalEdgeStyle;rounded=0;orthogonalLoop=1;jettySize=auto;html=1;" edge="1" parent="TOUegs6FuvzjUtlbZ1zc-3" source="CT22DMvGcDa_Don4qREr-13" target="TOUegs6FuvzjUtlbZ1zc-17">
          <mxGeometry relative="1" as="geometry" />
        </mxCell>
        <mxCell id="CT22DMvGcDa_Don4qREr-13" value="User Prompt&lt;div&gt;&amp;nbsp;library&lt;/div&gt;" style="html=1;align=center;verticalAlign=top;resizable=0;autosize=1;strokeColor=none;fillColor=none;shape=image;labelBackgroundColor=default;verticalLabelPosition=bottom;aspect=fixed;points=[];image=img/lib/azure2/databases/Azure_Database_PostgreSQL_Server.svg;" vertex="1" parent="TOUegs6FuvzjUtlbZ1zc-3">
          <mxGeometry x="162.45000000000002" y="787" width="90" height="60" as="geometry" />
        </mxCell>
        <mxCell id="CT22DMvGcDa_Don4qREr-112" style="edgeStyle=orthogonalEdgeStyle;rounded=0;orthogonalLoop=1;jettySize=auto;html=1;" edge="1" parent="TOUegs6FuvzjUtlbZ1zc-3" source="CT22DMvGcDa_Don4qREr-110" target="CT22DMvGcDa_Don4qREr-13">
          <mxGeometry relative="1" as="geometry" />
        </mxCell>
        <mxCell id="CT22DMvGcDa_Don4qREr-110" value="" style="sketch=0;points=[[0,0,0],[0.25,0,0],[0.5,0,0],[0.75,0,0],[1,0,0],[0,1,0],[0.25,1,0],[0.5,1,0],[0.75,1,0],[1,1,0],[0,0.25,0],[0,0.5,0],[0,0.75,0],[1,0.25,0],[1,0.5,0],[1,0.75,0]];outlineConnect=0;fontColor=#232F3E;fillColor=#ED7100;strokeColor=#ffffff;dashed=0;verticalLabelPosition=bottom;verticalAlign=top;align=center;html=1;fontSize=12;fontStyle=0;aspect=fixed;shape=mxgraph.aws4.resourceIcon;resIcon=mxgraph.aws4.lambda;" vertex="1" parent="TOUegs6FuvzjUtlbZ1zc-3">
          <mxGeometry x="370" y="783" width="65" height="65" as="geometry" />
        </mxCell>
        <mxCell id="TOUegs6FuvzjUtlbZ1zc-102" value="" style="shape=mxgraph.mockup.containers.marginRect;rectMarginTop=10;strokeColor=#666666;strokeWidth=1;dashed=0;rounded=1;arcSize=5;recursiveResize=0;html=1;whiteSpace=wrap;" parent="TOUegs6FuvzjUtlbZ1zc-1" vertex="1">
          <mxGeometry x="930" y="144" width="970" height="930" as="geometry" />
        </mxCell>
        <mxCell id="TOUegs6FuvzjUtlbZ1zc-103" value="Prod Account" style="shape=rect;strokeColor=none;fillColor=#008cff;strokeWidth=1;dashed=0;rounded=1;arcSize=20;fontColor=#ffffff;fontSize=17;spacing=2;spacingTop=-2;align=left;autosize=1;spacingLeft=4;resizeWidth=0;resizeHeight=0;perimeter=none;html=1;whiteSpace=wrap;" parent="TOUegs6FuvzjUtlbZ1zc-102" vertex="1">
          <mxGeometry x="5" width="130" height="30" as="geometry" />
        </mxCell>
        <mxCell id="TOUegs6FuvzjUtlbZ1zc-104" style="edgeStyle=orthogonalEdgeStyle;rounded=0;orthogonalLoop=1;jettySize=auto;html=1;" parent="TOUegs6FuvzjUtlbZ1zc-102" edge="1">
          <mxGeometry relative="1" as="geometry">
            <mxPoint x="586" y="460" as="targetPoint" />
            <mxPoint x="456" y="410" as="sourcePoint" />
            <Array as="points">
              <mxPoint x="456" y="460" />
            </Array>
          </mxGeometry>
        </mxCell>
        <mxCell id="TOUegs6FuvzjUtlbZ1zc-105" value="" style="outlineConnect=0;gradientColor=none;html=1;whiteSpace=wrap;fontSize=12;fontStyle=0;strokeColor=#858B94;fillColor=none;verticalAlign=top;align=center;fontColor=#858B94;dashed=1;spacingTop=3;strokeWidth=2;" parent="TOUegs6FuvzjUtlbZ1zc-102" vertex="1">
          <mxGeometry x="245.63" y="181.57" width="280" height="198.43" as="geometry" />
        </mxCell>
        <mxCell id="TOUegs6FuvzjUtlbZ1zc-106" value="" style="edgeStyle=orthogonalEdgeStyle;rounded=0;orthogonalLoop=1;jettySize=auto;html=1;" parent="TOUegs6FuvzjUtlbZ1zc-102" source="TOUegs6FuvzjUtlbZ1zc-119" target="TOUegs6FuvzjUtlbZ1zc-108" edge="1">
          <mxGeometry relative="1" as="geometry" />
        </mxCell>
        <mxCell id="TOUegs6FuvzjUtlbZ1zc-107" value="" style="sketch=0;points=[[0,0,0],[0.25,0,0],[0.5,0,0],[0.75,0,0],[1,0,0],[0,1,0],[0.25,1,0],[0.5,1,0],[0.75,1,0],[1,1,0],[0,0.25,0],[0,0.5,0],[0,0.75,0],[1,0.25,0],[1,0.5,0],[1,0.75,0]];outlineConnect=0;fontColor=#232F3E;fillColor=#01A88D;strokeColor=#ffffff;dashed=0;verticalLabelPosition=bottom;verticalAlign=top;align=center;html=1;fontSize=12;fontStyle=0;aspect=fixed;shape=mxgraph.aws4.resourceIcon;resIcon=mxgraph.aws4.sagemaker;" parent="TOUegs6FuvzjUtlbZ1zc-102" vertex="1">
          <mxGeometry x="284.9999999999999" y="198.74" width="40" height="40" as="geometry" />
        </mxCell>
        <mxCell id="TOUegs6FuvzjUtlbZ1zc-108" value="" style="sketch=0;points=[[0,0,0],[0.25,0,0],[0.5,0,0],[0.75,0,0],[1,0,0],[0,1,0],[0.25,1,0],[0.5,1,0],[0.75,1,0],[1,1,0],[0,0.25,0],[0,0.5,0],[0,0.75,0],[1,0.25,0],[1,0.5,0],[1,0.75,0]];outlineConnect=0;fontColor=#232F3E;fillColor=#01A88D;strokeColor=#ffffff;dashed=0;verticalLabelPosition=bottom;verticalAlign=top;align=center;html=1;fontSize=12;fontStyle=0;aspect=fixed;shape=mxgraph.aws4.resourceIcon;resIcon=mxgraph.aws4.sagemaker;" parent="TOUegs6FuvzjUtlbZ1zc-102" vertex="1">
          <mxGeometry x="284.9999999999999" y="307.19" width="40" height="40" as="geometry" />
        </mxCell>
        <mxCell id="TOUegs6FuvzjUtlbZ1zc-109" value="Endpoint" style="text;html=1;align=center;verticalAlign=middle;resizable=0;points=[];autosize=1;strokeColor=none;fillColor=none;" parent="TOUegs6FuvzjUtlbZ1zc-102" vertex="1">
          <mxGeometry x="269.9999999999999" y="347.19" width="70" height="30" as="geometry" />
        </mxCell>
        <mxCell id="TOUegs6FuvzjUtlbZ1zc-110" value="Deploy" style="text;html=1;align=center;verticalAlign=middle;resizable=0;points=[];autosize=1;strokeColor=none;fillColor=none;" parent="TOUegs6FuvzjUtlbZ1zc-102" vertex="1">
          <mxGeometry x="309.9999999999999" y="150" width="60" height="30" as="geometry" />
        </mxCell>
        <mxCell id="TOUegs6FuvzjUtlbZ1zc-111" value="" style="sketch=0;points=[[0,0,0],[0.25,0,0],[0.5,0,0],[0.75,0,0],[1,0,0],[0,1,0],[0.25,1,0],[0.5,1,0],[0.75,1,0],[1,1,0],[0,0.25,0],[0,0.5,0],[0,0.75,0],[1,0.25,0],[1,0.5,0],[1,0.75,0]];outlineConnect=0;fontColor=#232F3E;fillColor=#C925D1;strokeColor=#ffffff;dashed=0;verticalLabelPosition=bottom;verticalAlign=top;align=center;html=1;fontSize=12;fontStyle=0;aspect=fixed;shape=mxgraph.aws4.resourceIcon;resIcon=mxgraph.aws4.codebuild;" parent="TOUegs6FuvzjUtlbZ1zc-102" vertex="1">
          <mxGeometry x="139.43000000000006" y="119.37" width="39.37" height="39.37" as="geometry" />
        </mxCell>
        <mxCell id="TOUegs6FuvzjUtlbZ1zc-112" value="" style="sketch=0;points=[[0,0,0],[0.25,0,0],[0.5,0,0],[0.75,0,0],[1,0,0],[0,1,0],[0.25,1,0],[0.5,1,0],[0.75,1,0],[1,1,0],[0,0.25,0],[0,0.5,0],[0,0.75,0],[1,0.25,0],[1,0.5,0],[1,0.75,0]];outlineConnect=0;fontColor=#232F3E;fillColor=#C925D1;strokeColor=#ffffff;dashed=0;verticalLabelPosition=bottom;verticalAlign=top;align=center;html=1;fontSize=12;fontStyle=0;aspect=fixed;shape=mxgraph.aws4.resourceIcon;resIcon=mxgraph.aws4.codecommit;" parent="TOUegs6FuvzjUtlbZ1zc-102" vertex="1">
          <mxGeometry x="68.80999999999995" y="120" width="40" height="40" as="geometry" />
        </mxCell>
        <mxCell id="TOUegs6FuvzjUtlbZ1zc-113" value="Code&amp;nbsp;&lt;div&gt;Pipeline&lt;/div&gt;" style="text;html=1;align=center;verticalAlign=middle;resizable=0;points=[];autosize=1;strokeColor=none;fillColor=none;" parent="TOUegs6FuvzjUtlbZ1zc-102" vertex="1">
          <mxGeometry x="130" y="158.74" width="70" height="40" as="geometry" />
        </mxCell>
        <mxCell id="TOUegs6FuvzjUtlbZ1zc-114" style="edgeStyle=orthogonalEdgeStyle;rounded=0;orthogonalLoop=1;jettySize=auto;html=1;exitX=0.75;exitY=1;exitDx=0;exitDy=0;" parent="TOUegs6FuvzjUtlbZ1zc-102" source="TOUegs6FuvzjUtlbZ1zc-115" target="TOUegs6FuvzjUtlbZ1zc-146" edge="1">
          <mxGeometry relative="1" as="geometry">
            <Array as="points">
              <mxPoint x="180" y="228" />
            </Array>
          </mxGeometry>
        </mxCell>
        <mxCell id="TOUegs6FuvzjUtlbZ1zc-115" value="&lt;div&gt;&lt;br&gt;&lt;/div&gt;&lt;div&gt;&lt;br&gt;&lt;/div&gt;&lt;div&gt;&lt;br&gt;&lt;/div&gt;&lt;div&gt;&lt;br&gt;&lt;/div&gt;&lt;div&gt;&lt;br&gt;&lt;/div&gt;&lt;div&gt;&lt;br&gt;&lt;/div&gt;&lt;div&gt;&lt;br&gt;&lt;/div&gt;&lt;div&gt;&lt;br&gt;&lt;/div&gt;&lt;div&gt;&lt;br&gt;&lt;/div&gt;&lt;div&gt;&lt;br&gt;&lt;/div&gt;&lt;div&gt;&lt;br&gt;&lt;/div&gt;&lt;div&gt;&lt;br&gt;&lt;/div&gt;&lt;div&gt;&lt;br&gt;&lt;/div&gt;&lt;div&gt;&lt;br&gt;&lt;/div&gt;&lt;div&gt;&lt;br&gt;&lt;/div&gt;&lt;div&gt;&lt;br&gt;&lt;/div&gt;&lt;div&gt;&lt;br&gt;&lt;/div&gt;" style="outlineConnect=0;gradientColor=none;html=1;whiteSpace=wrap;fontSize=12;fontStyle=0;strokeColor=#858B94;fillColor=none;verticalAlign=top;align=center;fontColor=#858B94;dashed=1;spacingTop=3;strokeWidth=2;" parent="TOUegs6FuvzjUtlbZ1zc-102" vertex="1">
          <mxGeometry x="58.81" y="102.5" width="161.19" height="125" as="geometry" />
        </mxCell>
        <mxCell id="TOUegs6FuvzjUtlbZ1zc-116" style="edgeStyle=orthogonalEdgeStyle;rounded=0;orthogonalLoop=1;jettySize=auto;html=1;exitX=1;exitY=0.5;exitDx=0;exitDy=0;exitPerimeter=0;entryX=0;entryY=0.5;entryDx=0;entryDy=0;entryPerimeter=0;" parent="TOUegs6FuvzjUtlbZ1zc-102" source="TOUegs6FuvzjUtlbZ1zc-112" target="TOUegs6FuvzjUtlbZ1zc-111" edge="1">
          <mxGeometry relative="1" as="geometry" />
        </mxCell>
        <mxCell id="TOUegs6FuvzjUtlbZ1zc-117" style="edgeStyle=orthogonalEdgeStyle;rounded=0;orthogonalLoop=1;jettySize=auto;html=1;entryX=0.8;entryY=0.354;entryDx=0;entryDy=0;entryPerimeter=0;exitX=1;exitY=0.25;exitDx=0;exitDy=0;" parent="TOUegs6FuvzjUtlbZ1zc-102" source="TOUegs6FuvzjUtlbZ1zc-115" edge="1">
          <mxGeometry relative="1" as="geometry">
            <mxPoint x="260" y="131" as="sourcePoint" />
            <mxPoint x="372.13" y="181.56000000000023" as="targetPoint" />
            <Array as="points">
              <mxPoint x="224" y="131" />
              <mxPoint x="372" y="131" />
            </Array>
          </mxGeometry>
        </mxCell>
        <mxCell id="TOUegs6FuvzjUtlbZ1zc-118" value="Continuous deployment" style="text;html=1;align=center;verticalAlign=middle;resizable=0;points=[];autosize=1;strokeColor=none;fillColor=none;" parent="TOUegs6FuvzjUtlbZ1zc-102" vertex="1">
          <mxGeometry x="44.99999999999989" y="70" width="150" height="30" as="geometry" />
        </mxCell>
        <mxCell id="TOUegs6FuvzjUtlbZ1zc-119" value="Endpoint&lt;div&gt;config&lt;/div&gt;" style="text;html=1;align=center;verticalAlign=middle;resizable=0;points=[];autosize=1;strokeColor=none;fillColor=none;" parent="TOUegs6FuvzjUtlbZ1zc-102" vertex="1">
          <mxGeometry x="269.9999999999999" y="238.74" width="70" height="40" as="geometry" />
        </mxCell>
        <mxCell id="TOUegs6FuvzjUtlbZ1zc-120" value="Code&amp;nbsp;&lt;div&gt;commit&lt;/div&gt;" style="text;html=1;align=center;verticalAlign=middle;resizable=0;points=[];autosize=1;strokeColor=none;fillColor=none;" parent="TOUegs6FuvzjUtlbZ1zc-102" vertex="1">
          <mxGeometry x="58.809999999999945" y="158.74" width="60" height="40" as="geometry" />
        </mxCell>
        <mxCell id="TOUegs6FuvzjUtlbZ1zc-121" value="Endpoint" style="text;html=1;align=center;verticalAlign=middle;resizable=0;points=[];autosize=1;strokeColor=none;fillColor=none;" parent="TOUegs6FuvzjUtlbZ1zc-102" vertex="1">
          <mxGeometry x="350.6299999999999" y="347.19" width="70" height="30" as="geometry" />
        </mxCell>
        <mxCell id="TOUegs6FuvzjUtlbZ1zc-122" value="" style="edgeStyle=orthogonalEdgeStyle;rounded=0;orthogonalLoop=1;jettySize=auto;html=1;" parent="TOUegs6FuvzjUtlbZ1zc-102" source="TOUegs6FuvzjUtlbZ1zc-125" target="TOUegs6FuvzjUtlbZ1zc-123" edge="1">
          <mxGeometry relative="1" as="geometry">
            <Array as="points">
              <mxPoint x="386" y="280" />
              <mxPoint x="386" y="280" />
            </Array>
          </mxGeometry>
        </mxCell>
        <mxCell id="TOUegs6FuvzjUtlbZ1zc-123" value="" style="sketch=0;points=[[0,0,0],[0.25,0,0],[0.5,0,0],[0.75,0,0],[1,0,0],[0,1,0],[0.25,1,0],[0.5,1,0],[0.75,1,0],[1,1,0],[0,0.25,0],[0,0.5,0],[0,0.75,0],[1,0.25,0],[1,0.5,0],[1,0.75,0]];outlineConnect=0;fontColor=#232F3E;fillColor=#01A88D;strokeColor=#ffffff;dashed=0;verticalLabelPosition=bottom;verticalAlign=top;align=center;html=1;fontSize=12;fontStyle=0;aspect=fixed;shape=mxgraph.aws4.resourceIcon;resIcon=mxgraph.aws4.sagemaker;" parent="TOUegs6FuvzjUtlbZ1zc-102" vertex="1">
          <mxGeometry x="365.6299999999999" y="309.38" width="40" height="40" as="geometry" />
        </mxCell>
        <mxCell id="TOUegs6FuvzjUtlbZ1zc-124" value="" style="sketch=0;points=[[0,0,0],[0.25,0,0],[0.5,0,0],[0.75,0,0],[1,0,0],[0,1,0],[0.25,1,0],[0.5,1,0],[0.75,1,0],[1,1,0],[0,0.25,0],[0,0.5,0],[0,0.75,0],[1,0.25,0],[1,0.5,0],[1,0.75,0]];outlineConnect=0;fontColor=#232F3E;fillColor=#01A88D;strokeColor=#ffffff;dashed=0;verticalLabelPosition=bottom;verticalAlign=top;align=center;html=1;fontSize=12;fontStyle=0;aspect=fixed;shape=mxgraph.aws4.resourceIcon;resIcon=mxgraph.aws4.sagemaker;" parent="TOUegs6FuvzjUtlbZ1zc-102" vertex="1">
          <mxGeometry x="370" y="197.48000000000002" width="41.26" height="41.26" as="geometry" />
        </mxCell>
        <mxCell id="TOUegs6FuvzjUtlbZ1zc-125" value="Endpoint&lt;div&gt;config&lt;/div&gt;" style="text;html=1;align=center;verticalAlign=middle;resizable=0;points=[];autosize=1;strokeColor=none;fillColor=none;" parent="TOUegs6FuvzjUtlbZ1zc-102" vertex="1">
          <mxGeometry x="349.9999999999999" y="240.93" width="70" height="40" as="geometry" />
        </mxCell>
        <mxCell id="TOUegs6FuvzjUtlbZ1zc-126" value="Endpoint" style="text;html=1;align=center;verticalAlign=middle;resizable=0;points=[];autosize=1;strokeColor=none;fillColor=none;" parent="TOUegs6FuvzjUtlbZ1zc-102" vertex="1">
          <mxGeometry x="439.9999999999999" y="343.45" width="70" height="30" as="geometry" />
        </mxCell>
        <mxCell id="TOUegs6FuvzjUtlbZ1zc-127" value="" style="edgeStyle=orthogonalEdgeStyle;rounded=0;orthogonalLoop=1;jettySize=auto;html=1;" parent="TOUegs6FuvzjUtlbZ1zc-102" source="TOUegs6FuvzjUtlbZ1zc-130" target="TOUegs6FuvzjUtlbZ1zc-128" edge="1">
          <mxGeometry relative="1" as="geometry" />
        </mxCell>
        <mxCell id="TOUegs6FuvzjUtlbZ1zc-128" value="" style="sketch=0;points=[[0,0,0],[0.25,0,0],[0.5,0,0],[0.75,0,0],[1,0,0],[0,1,0],[0.25,1,0],[0.5,1,0],[0.75,1,0],[1,1,0],[0,0.25,0],[0,0.5,0],[0,0.75,0],[1,0.25,0],[1,0.5,0],[1,0.75,0]];outlineConnect=0;fontColor=#232F3E;fillColor=#01A88D;strokeColor=#ffffff;dashed=0;verticalLabelPosition=bottom;verticalAlign=top;align=center;html=1;fontSize=12;fontStyle=0;aspect=fixed;shape=mxgraph.aws4.resourceIcon;resIcon=mxgraph.aws4.sagemaker;" parent="TOUegs6FuvzjUtlbZ1zc-102" vertex="1">
          <mxGeometry x="454.3699999999999" y="309.38" width="40" height="40" as="geometry" />
        </mxCell>
        <mxCell id="TOUegs6FuvzjUtlbZ1zc-129" value="" style="sketch=0;points=[[0,0,0],[0.25,0,0],[0.5,0,0],[0.75,0,0],[1,0,0],[0,1,0],[0.25,1,0],[0.5,1,0],[0.75,1,0],[1,1,0],[0,0.25,0],[0,0.5,0],[0,0.75,0],[1,0.25,0],[1,0.5,0],[1,0.75,0]];outlineConnect=0;fontColor=#232F3E;fillColor=#01A88D;strokeColor=#ffffff;dashed=0;verticalLabelPosition=bottom;verticalAlign=top;align=center;html=1;fontSize=12;fontStyle=0;aspect=fixed;shape=mxgraph.aws4.resourceIcon;resIcon=mxgraph.aws4.sagemaker;" parent="TOUegs6FuvzjUtlbZ1zc-102" vertex="1">
          <mxGeometry x="453.11" y="198.10999999999999" width="41.26" height="41.26" as="geometry" />
        </mxCell>
        <mxCell id="TOUegs6FuvzjUtlbZ1zc-130" value="Endpoint&lt;div&gt;config&lt;/div&gt;" style="text;html=1;align=center;verticalAlign=middle;resizable=0;points=[];autosize=1;strokeColor=none;fillColor=none;" parent="TOUegs6FuvzjUtlbZ1zc-102" vertex="1">
          <mxGeometry x="439.3699999999999" y="238.74" width="70" height="40" as="geometry" />
        </mxCell>
        <mxCell id="CT22DMvGcDa_Don4qREr-147" style="edgeStyle=orthogonalEdgeStyle;rounded=0;orthogonalLoop=1;jettySize=auto;html=1;" edge="1" parent="TOUegs6FuvzjUtlbZ1zc-102" source="TOUegs6FuvzjUtlbZ1zc-131" target="TOUegs6FuvzjUtlbZ1zc-147">
          <mxGeometry relative="1" as="geometry">
            <Array as="points">
              <mxPoint x="650" y="670" />
              <mxPoint x="650" y="670" />
            </Array>
          </mxGeometry>
        </mxCell>
        <mxCell id="TOUegs6FuvzjUtlbZ1zc-131" value="AWS Elastic Beanstalk" style="sketch=0;outlineConnect=0;fontColor=#232F3E;gradientColor=none;strokeColor=#ffffff;fillColor=#232F3E;dashed=0;verticalLabelPosition=middle;verticalAlign=bottom;align=center;html=1;whiteSpace=wrap;fontSize=10;fontStyle=1;spacing=3;shape=mxgraph.aws4.productIcon;prIcon=mxgraph.aws4.elastic_beanstalk;" parent="TOUegs6FuvzjUtlbZ1zc-102" vertex="1">
          <mxGeometry x="690" y="630" width="60" height="100" as="geometry" />
        </mxCell>
        <mxCell id="TOUegs6FuvzjUtlbZ1zc-132" value="" style="outlineConnect=0;gradientColor=none;html=1;whiteSpace=wrap;fontSize=12;fontStyle=0;strokeColor=#858B94;fillColor=none;verticalAlign=top;align=center;fontColor=#858B94;dashed=1;spacingTop=3;strokeWidth=2;" parent="TOUegs6FuvzjUtlbZ1zc-102" vertex="1">
          <mxGeometry x="600" y="401.44" width="160" height="110" as="geometry" />
        </mxCell>
        <mxCell id="TOUegs6FuvzjUtlbZ1zc-133" value="" style="outlineConnect=0;gradientColor=none;html=1;whiteSpace=wrap;fontSize=12;fontStyle=0;strokeColor=#858B94;fillColor=none;verticalAlign=top;align=center;fontColor=#858B94;dashed=1;spacingTop=3;strokeWidth=2;" parent="TOUegs6FuvzjUtlbZ1zc-102" vertex="1">
          <mxGeometry x="560" y="180" width="250" height="170" as="geometry" />
        </mxCell>
        <mxCell id="CT22DMvGcDa_Don4qREr-144" style="edgeStyle=orthogonalEdgeStyle;rounded=0;orthogonalLoop=1;jettySize=auto;html=1;" edge="1" parent="TOUegs6FuvzjUtlbZ1zc-102" source="TOUegs6FuvzjUtlbZ1zc-134" target="TOUegs6FuvzjUtlbZ1zc-87">
          <mxGeometry relative="1" as="geometry" />
        </mxCell>
        <mxCell id="TOUegs6FuvzjUtlbZ1zc-134" value="" style="image;aspect=fixed;html=1;points=[];align=center;fontSize=12;image=img/lib/azure2/databases/Azure_Database_PostgreSQL_Server_Group.svg;" parent="TOUegs6FuvzjUtlbZ1zc-102" vertex="1">
          <mxGeometry x="861.88" y="565" width="39.52" height="44.8" as="geometry" />
        </mxCell>
        <mxCell id="TOUegs6FuvzjUtlbZ1zc-135" value="Clinical&lt;div&gt;&amp;nbsp;Data Hub&lt;/div&gt;" style="text;html=1;align=center;verticalAlign=middle;resizable=0;points=[];autosize=1;strokeColor=none;fillColor=none;" parent="TOUegs6FuvzjUtlbZ1zc-102" vertex="1">
          <mxGeometry x="844" y="609.8000000000001" width="80" height="40" as="geometry" />
        </mxCell>
        <mxCell id="TOUegs6FuvzjUtlbZ1zc-136" value="RAG" style="text;html=1;align=center;verticalAlign=middle;resizable=0;points=[];autosize=1;strokeColor=none;fillColor=none;" parent="TOUegs6FuvzjUtlbZ1zc-102" vertex="1">
          <mxGeometry x="629.9999999999998" y="148.1300000000001" width="50" height="30" as="geometry" />
        </mxCell>
        <mxCell id="TOUegs6FuvzjUtlbZ1zc-137" value="" style="edgeStyle=orthogonalEdgeStyle;rounded=0;orthogonalLoop=1;jettySize=auto;html=1;" parent="TOUegs6FuvzjUtlbZ1zc-102" source="TOUegs6FuvzjUtlbZ1zc-139" target="TOUegs6FuvzjUtlbZ1zc-133" edge="1">
          <mxGeometry relative="1" as="geometry" />
        </mxCell>
        <mxCell id="TOUegs6FuvzjUtlbZ1zc-139" value="" style="sketch=0;points=[[0,0,0],[0.25,0,0],[0.5,0,0],[0.75,0,0],[1,0,0],[0,1,0],[0.25,1,0],[0.5,1,0],[0.75,1,0],[1,1,0],[0,0.25,0],[0,0.5,0],[0,0.75,0],[1,0.25,0],[1,0.5,0],[1,0.75,0]];outlineConnect=0;fontColor=#232F3E;fillColor=#ED7100;strokeColor=#ffffff;dashed=0;verticalLabelPosition=bottom;verticalAlign=top;align=center;html=1;fontSize=12;fontStyle=0;aspect=fixed;shape=mxgraph.aws4.resourceIcon;resIcon=mxgraph.aws4.lambda;" parent="TOUegs6FuvzjUtlbZ1zc-102" vertex="1">
          <mxGeometry x="620" y="440" width="40" height="40" as="geometry" />
        </mxCell>
        <mxCell id="TOUegs6FuvzjUtlbZ1zc-140" value="" style="sketch=0;points=[[0,0,0],[0.25,0,0],[0.5,0,0],[0.75,0,0],[1,0,0],[0,1,0],[0.25,1,0],[0.5,1,0],[0.75,1,0],[1,1,0],[0,0.25,0],[0,0.5,0],[0,0.75,0],[1,0.25,0],[1,0.5,0],[1,0.75,0]];outlineConnect=0;fontColor=#232F3E;fillColor=#E7157B;strokeColor=#ffffff;dashed=0;verticalLabelPosition=bottom;verticalAlign=top;align=center;html=1;fontSize=12;fontStyle=0;aspect=fixed;shape=mxgraph.aws4.resourceIcon;resIcon=mxgraph.aws4.api_gateway;" parent="TOUegs6FuvzjUtlbZ1zc-102" vertex="1">
          <mxGeometry x="700" y="440" width="40" height="40" as="geometry" />
        </mxCell>
        <mxCell id="TOUegs6FuvzjUtlbZ1zc-141" style="edgeStyle=orthogonalEdgeStyle;rounded=0;orthogonalLoop=1;jettySize=auto;html=1;exitX=0;exitY=0.5;exitDx=0;exitDy=0;exitPerimeter=0;entryX=1;entryY=0.5;entryDx=0;entryDy=0;entryPerimeter=0;" parent="TOUegs6FuvzjUtlbZ1zc-102" source="TOUegs6FuvzjUtlbZ1zc-140" target="TOUegs6FuvzjUtlbZ1zc-139" edge="1">
          <mxGeometry relative="1" as="geometry" />
        </mxCell>
        <mxCell id="TOUegs6FuvzjUtlbZ1zc-142" style="edgeStyle=orthogonalEdgeStyle;rounded=0;orthogonalLoop=1;jettySize=auto;html=1;exitX=0.5;exitY=1;exitDx=0;exitDy=0;exitPerimeter=0;" parent="TOUegs6FuvzjUtlbZ1zc-102" source="TOUegs6FuvzjUtlbZ1zc-140" target="TOUegs6FuvzjUtlbZ1zc-131" edge="1">
          <mxGeometry relative="1" as="geometry">
            <mxPoint x="890" y="610" as="targetPoint" />
            <Array as="points">
              <mxPoint x="720" y="560" />
              <mxPoint x="720" y="560" />
            </Array>
          </mxGeometry>
        </mxCell>
        <mxCell id="TOUegs6FuvzjUtlbZ1zc-143" style="edgeStyle=orthogonalEdgeStyle;rounded=0;orthogonalLoop=1;jettySize=auto;html=1;entryX=0.75;entryY=1;entryDx=0;entryDy=0;" parent="TOUegs6FuvzjUtlbZ1zc-102" target="TOUegs6FuvzjUtlbZ1zc-105" edge="1">
          <mxGeometry relative="1" as="geometry">
            <mxPoint x="580" y="460" as="sourcePoint" />
            <mxPoint x="299" y="400" as="targetPoint" />
            <Array as="points">
              <mxPoint x="456" y="460" />
            </Array>
          </mxGeometry>
        </mxCell>
        <mxCell id="TOUegs6FuvzjUtlbZ1zc-144" style="edgeStyle=orthogonalEdgeStyle;rounded=0;orthogonalLoop=1;jettySize=auto;html=1;entryX=0.5;entryY=0;entryDx=0;entryDy=0;entryPerimeter=0;" parent="TOUegs6FuvzjUtlbZ1zc-102" source="TOUegs6FuvzjUtlbZ1zc-133" target="TOUegs6FuvzjUtlbZ1zc-139" edge="1">
          <mxGeometry relative="1" as="geometry" />
        </mxCell>
        <mxCell id="TOUegs6FuvzjUtlbZ1zc-145" style="edgeStyle=orthogonalEdgeStyle;rounded=0;orthogonalLoop=1;jettySize=auto;html=1;entryX=0;entryY=0.75;entryDx=0;entryDy=0;" parent="TOUegs6FuvzjUtlbZ1zc-102" source="TOUegs6FuvzjUtlbZ1zc-146" target="TOUegs6FuvzjUtlbZ1zc-105" edge="1">
          <mxGeometry relative="1" as="geometry" />
        </mxCell>
        <mxCell id="TOUegs6FuvzjUtlbZ1zc-146" value="Prompt&lt;div&gt;&amp;nbsp;library&lt;/div&gt;" style="html=1;align=center;verticalAlign=top;resizable=0;autosize=1;strokeColor=none;fillColor=none;shape=image;labelBackgroundColor=default;verticalLabelPosition=bottom;aspect=fixed;points=[];image=img/lib/azure2/databases/Azure_Database_PostgreSQL_Server.svg;" parent="TOUegs6FuvzjUtlbZ1zc-102" vertex="1">
          <mxGeometry x="150" y="274.22" width="60" height="40" as="geometry" />
        </mxCell>
        <mxCell id="TOUegs6FuvzjUtlbZ1zc-147" value="Amazon S3" style="sketch=0;outlineConnect=0;fontColor=#232F3E;gradientColor=none;strokeColor=#ffffff;fillColor=#232F3E;dashed=0;verticalLabelPosition=middle;verticalAlign=bottom;align=center;html=1;whiteSpace=wrap;fontSize=10;fontStyle=1;spacing=3;shape=mxgraph.aws4.productIcon;prIcon=mxgraph.aws4.s3;" parent="TOUegs6FuvzjUtlbZ1zc-102" vertex="1">
          <mxGeometry x="456.63" y="630" width="69" height="92" as="geometry" />
        </mxCell>
        <mxCell id="TOUegs6FuvzjUtlbZ1zc-242" value="" style="sketch=0;points=[[0,0,0],[0.25,0,0],[0.5,0,0],[0.75,0,0],[1,0,0],[0,1,0],[0.25,1,0],[0.5,1,0],[0.75,1,0],[1,1,0],[0,0.25,0],[0,0.5,0],[0,0.75,0],[1,0.25,0],[1,0.5,0],[1,0.75,0]];outlineConnect=0;fontColor=#232F3E;fillColor=#ED7100;strokeColor=#ffffff;dashed=0;verticalLabelPosition=bottom;verticalAlign=top;align=center;html=1;fontSize=12;fontStyle=0;aspect=fixed;shape=mxgraph.aws4.resourceIcon;resIcon=mxgraph.aws4.lambda;" parent="TOUegs6FuvzjUtlbZ1zc-102" vertex="1">
          <mxGeometry x="155" y="710" width="60" height="60" as="geometry" />
        </mxCell>
        <mxCell id="TOUegs6FuvzjUtlbZ1zc-243" style="edgeStyle=orthogonalEdgeStyle;rounded=0;orthogonalLoop=1;jettySize=auto;html=1;entryX=0.5;entryY=0;entryDx=0;entryDy=0;entryPerimeter=0;" parent="TOUegs6FuvzjUtlbZ1zc-102" source="TOUegs6FuvzjUtlbZ1zc-147" target="TOUegs6FuvzjUtlbZ1zc-242" edge="1">
          <mxGeometry relative="1" as="geometry">
            <mxPoint x="434" y="602" as="sourcePoint" />
            <Array as="points">
              <mxPoint x="185" y="676" />
            </Array>
          </mxGeometry>
        </mxCell>
        <mxCell id="CT22DMvGcDa_Don4qREr-115" style="edgeStyle=orthogonalEdgeStyle;rounded=0;orthogonalLoop=1;jettySize=auto;html=1;" edge="1" parent="TOUegs6FuvzjUtlbZ1zc-102" source="CT22DMvGcDa_Don4qREr-11" target="TOUegs6FuvzjUtlbZ1zc-131">
          <mxGeometry relative="1" as="geometry" />
        </mxCell>
        <mxCell id="CT22DMvGcDa_Don4qREr-11" value="" style="html=1;verticalLabelPosition=bottom;align=center;labelBackgroundColor=#ffffff;verticalAlign=top;strokeWidth=2;strokeColor=#0080F0;shadow=0;dashed=0;shape=mxgraph.ios7.icons.chat;" vertex="1" parent="TOUegs6FuvzjUtlbZ1zc-102">
          <mxGeometry x="690" y="780" width="60" height="50" as="geometry" />
        </mxCell>
        <mxCell id="CT22DMvGcDa_Don4qREr-12" value="User Query" style="text;html=1;align=center;verticalAlign=middle;resizable=0;points=[];autosize=1;strokeColor=none;fillColor=none;" vertex="1" parent="TOUegs6FuvzjUtlbZ1zc-102">
          <mxGeometry x="675" y="828" width="80" height="30" as="geometry" />
        </mxCell>
        <mxCell id="CT22DMvGcDa_Don4qREr-129" value="" style="sketch=0;outlineConnect=0;fontColor=#232F3E;gradientColor=none;fillColor=#8C4FFF;strokeColor=none;dashed=0;verticalLabelPosition=bottom;verticalAlign=top;align=center;html=1;fontSize=12;fontStyle=0;aspect=fixed;pointerEvents=1;shape=mxgraph.aws4.opensearch_dashboards;" vertex="1" parent="TOUegs6FuvzjUtlbZ1zc-102">
          <mxGeometry x="580" y="218.27" width="70" height="52.95" as="geometry" />
        </mxCell>
        <mxCell id="CT22DMvGcDa_Don4qREr-130" value="Opensearch" style="text;html=1;align=center;verticalAlign=middle;resizable=0;points=[];autosize=1;strokeColor=none;fillColor=none;" vertex="1" parent="TOUegs6FuvzjUtlbZ1zc-102">
          <mxGeometry x="570" y="274.21999999999997" width="90" height="30" as="geometry" />
        </mxCell>
        <mxCell id="CT22DMvGcDa_Don4qREr-135" style="edgeStyle=orthogonalEdgeStyle;rounded=0;orthogonalLoop=1;jettySize=auto;html=1;" edge="1" parent="TOUegs6FuvzjUtlbZ1zc-102" source="CT22DMvGcDa_Don4qREr-123" target="CT22DMvGcDa_Don4qREr-129">
          <mxGeometry relative="1" as="geometry" />
        </mxCell>
        <mxCell id="CT22DMvGcDa_Don4qREr-123" value="" style="sketch=0;points=[[0,0,0],[0.25,0,0],[0.5,0,0],[0.75,0,0],[1,0,0],[0,1,0],[0.25,1,0],[0.5,1,0],[0.75,1,0],[1,1,0],[0,0.25,0],[0,0.5,0],[0,0.75,0],[1,0.25,0],[1,0.5,0],[1,0.75,0]];outlineConnect=0;fontColor=#232F3E;fillColor=#01A88D;strokeColor=#ffffff;dashed=0;verticalLabelPosition=bottom;verticalAlign=top;align=center;html=1;fontSize=12;fontStyle=0;aspect=fixed;shape=mxgraph.aws4.resourceIcon;resIcon=mxgraph.aws4.sagemaker;" vertex="1" parent="TOUegs6FuvzjUtlbZ1zc-102">
          <mxGeometry x="714" y="214.22" width="60" height="60" as="geometry" />
        </mxCell>
        <mxCell id="CT22DMvGcDa_Don4qREr-128" value="Embedding&lt;div&gt;&amp;nbsp;Model&lt;/div&gt;" style="text;html=1;align=center;verticalAlign=middle;resizable=0;points=[];autosize=1;strokeColor=none;fillColor=none;" vertex="1" parent="TOUegs6FuvzjUtlbZ1zc-102">
          <mxGeometry x="704" y="274.22" width="80" height="40" as="geometry" />
        </mxCell>
        <mxCell id="CT22DMvGcDa_Don4qREr-6" value="AWS Fargate" style="sketch=0;outlineConnect=0;fontColor=#232F3E;gradientColor=none;strokeColor=#ffffff;fillColor=#232F3E;dashed=0;verticalLabelPosition=middle;verticalAlign=bottom;align=center;html=1;whiteSpace=wrap;fontSize=10;fontStyle=1;spacing=3;shape=mxgraph.aws4.productIcon;prIcon=mxgraph.aws4.fargate;" vertex="1" parent="TOUegs6FuvzjUtlbZ1zc-102">
          <mxGeometry x="864" y="245" width="50" height="40" as="geometry" />
        </mxCell>
        <mxCell id="CT22DMvGcDa_Don4qREr-136" style="edgeStyle=orthogonalEdgeStyle;rounded=0;orthogonalLoop=1;jettySize=auto;html=1;entryX=1;entryY=0.5;entryDx=0;entryDy=0;entryPerimeter=0;" edge="1" parent="TOUegs6FuvzjUtlbZ1zc-102" source="CT22DMvGcDa_Don4qREr-6" target="CT22DMvGcDa_Don4qREr-123">
          <mxGeometry relative="1" as="geometry" />
        </mxCell>
        <mxCell id="CT22DMvGcDa_Don4qREr-7" value="Fargate API" style="text;html=1;align=center;verticalAlign=middle;resizable=0;points=[];autosize=1;strokeColor=none;fillColor=none;" vertex="1" parent="TOUegs6FuvzjUtlbZ1zc-102">
          <mxGeometry x="844" y="290" width="90" height="30" as="geometry" />
        </mxCell>
        <mxCell id="CT22DMvGcDa_Don4qREr-137" style="edgeStyle=orthogonalEdgeStyle;rounded=0;orthogonalLoop=1;jettySize=auto;html=1;" edge="1" parent="TOUegs6FuvzjUtlbZ1zc-102" source="CT22DMvGcDa_Don4qREr-1" target="CT22DMvGcDa_Don4qREr-7">
          <mxGeometry relative="1" as="geometry" />
        </mxCell>
        <mxCell id="CT22DMvGcDa_Don4qREr-1" value="" style="image;aspect=fixed;perimeter=ellipsePerimeter;html=1;align=center;shadow=0;dashed=0;spacingTop=3;image=img/lib/active_directory/database.svg;" vertex="1" parent="TOUegs6FuvzjUtlbZ1zc-102">
          <mxGeometry x="863" y="388.5" width="50" height="37" as="geometry" />
        </mxCell>
        <mxCell id="CT22DMvGcDa_Don4qREr-4" value="IBM IGC&lt;div&gt;Data Catalogs&lt;/div&gt;&lt;div&gt;Dictionaries&lt;/div&gt;" style="text;html=1;align=center;verticalAlign=middle;resizable=0;points=[];autosize=1;strokeColor=none;fillColor=none;" vertex="1" parent="TOUegs6FuvzjUtlbZ1zc-102">
          <mxGeometry x="838" y="426.5" width="100" height="60" as="geometry" />
        </mxCell>
        <mxCell id="CT22DMvGcDa_Don4qREr-142" style="edgeStyle=orthogonalEdgeStyle;rounded=0;orthogonalLoop=1;jettySize=auto;html=1;entryX=1;entryY=0.5;entryDx=0;entryDy=0;" edge="1" parent="TOUegs6FuvzjUtlbZ1zc-102" source="TOUegs6FuvzjUtlbZ1zc-84" target="CT22DMvGcDa_Don4qREr-1">
          <mxGeometry relative="1" as="geometry" />
        </mxCell>
        <mxCell id="TOUegs6FuvzjUtlbZ1zc-84" value="" style="image;aspect=fixed;html=1;points=[];align=center;fontSize=12;image=img/lib/azure2/databases/Azure_Database_PostgreSQL_Server_Group.svg;" parent="TOUegs6FuvzjUtlbZ1zc-102" vertex="1">
          <mxGeometry x="999.0000000000002" y="375.5" width="52.94" height="60" as="geometry" />
        </mxCell>
        <mxCell id="TOUegs6FuvzjUtlbZ1zc-87" value="GraphDB" style="text;html=1;align=center;verticalAlign=middle;resizable=0;points=[];autosize=1;strokeColor=none;fillColor=none;" parent="TOUegs6FuvzjUtlbZ1zc-102" vertex="1">
          <mxGeometry x="987.94" y="441.5" width="70" height="30" as="geometry" />
        </mxCell>
        <mxCell id="CT22DMvGcDa_Don4qREr-146" value="&lt;div&gt;&lt;br&gt;&lt;/div&gt;&lt;div&gt;&lt;br&gt;&lt;/div&gt;&lt;div&gt;&lt;br&gt;&lt;/div&gt;&lt;div&gt;&lt;br&gt;&lt;/div&gt;&lt;div&gt;&lt;br&gt;&lt;/div&gt;&lt;div&gt;&lt;br&gt;&lt;/div&gt;&lt;div&gt;&lt;br&gt;&lt;/div&gt;&lt;div&gt;&lt;br&gt;&lt;/div&gt;&lt;div&gt;&lt;br&gt;&lt;/div&gt;&lt;div&gt;&lt;br&gt;&lt;/div&gt;&lt;div&gt;&lt;br&gt;&lt;/div&gt;&lt;div&gt;&lt;br&gt;&lt;/div&gt;&lt;div&gt;&lt;br&gt;&lt;/div&gt;&lt;div&gt;&lt;br&gt;&lt;/div&gt;&lt;div&gt;&lt;br&gt;&lt;/div&gt;&lt;div&gt;&lt;br&gt;&lt;/div&gt;&lt;div&gt;&lt;br&gt;&lt;/div&gt;" style="outlineConnect=0;gradientColor=none;html=1;whiteSpace=wrap;fontSize=12;fontStyle=0;strokeColor=#858B94;fillColor=none;verticalAlign=top;align=center;fontColor=#858B94;dashed=1;spacingTop=3;strokeWidth=2;" vertex="1" parent="TOUegs6FuvzjUtlbZ1zc-102">
          <mxGeometry x="-690" y="620" width="1520" height="280" as="geometry" />
        </mxCell>
        <mxCell id="CT22DMvGcDa_Don4qREr-150" value="Self Learning Loop" style="text;html=1;align=center;verticalAlign=middle;resizable=0;points=[];autosize=1;strokeColor=none;fillColor=none;" vertex="1" parent="TOUegs6FuvzjUtlbZ1zc-102">
          <mxGeometry x="60" y="590" width="120" height="30" as="geometry" />
        </mxCell>
        <mxCell id="TOUegs6FuvzjUtlbZ1zc-244" style="edgeStyle=orthogonalEdgeStyle;rounded=0;orthogonalLoop=1;jettySize=auto;html=1;" parent="TOUegs6FuvzjUtlbZ1zc-1" source="TOUegs6FuvzjUtlbZ1zc-242" target="TOUegs6FuvzjUtlbZ1zc-148" edge="1">
          <mxGeometry relative="1" as="geometry">
            <Array as="points">
              <mxPoint x="1051" y="900" />
              <mxPoint x="1051" y="959" />
            </Array>
          </mxGeometry>
        </mxCell>
        <mxCell id="CT22DMvGcDa_Don4qREr-114" value="" style="edgeStyle=orthogonalEdgeStyle;rounded=0;orthogonalLoop=1;jettySize=auto;html=1;" edge="1" parent="TOUegs6FuvzjUtlbZ1zc-1" source="TOUegs6FuvzjUtlbZ1zc-22" target="TOUegs6FuvzjUtlbZ1zc-121">
          <mxGeometry relative="1" as="geometry">
            <Array as="points">
              <mxPoint x="1012" y="510" />
              <mxPoint x="1012" y="600" />
              <mxPoint x="1316" y="600" />
            </Array>
            <mxPoint x="695" y="633" as="sourcePoint" />
            <mxPoint x="1426" y="720" as="targetPoint" />
          </mxGeometry>
        </mxCell>
        <mxCell id="TOUegs6FuvzjUtlbZ1zc-97" style="edgeStyle=orthogonalEdgeStyle;rounded=0;orthogonalLoop=1;jettySize=auto;html=1;" parent="TOUegs6FuvzjUtlbZ1zc-1" source="TOUegs6FuvzjUtlbZ1zc-11" target="TOUegs6FuvzjUtlbZ1zc-120" edge="1">
          <mxGeometry relative="1" as="geometry">
            <Array as="points">
              <mxPoint x="569" y="440" />
              <mxPoint x="1015" y="440" />
            </Array>
            <mxPoint x="2629.107499999999" y="447.5" as="targetPoint" />
          </mxGeometry>
        </mxCell>
      </root>
    </mxGraphModel>
  </diagram>
</mxfile>
